<svg xmlns="http://www.w3.org/2000/svg" xmlns:xlink="http://www.w3.org/1999/xlink" viewBox="0 0 135.11 135.11"><defs><style>.cls-1,.cls-10,.cls-8{fill:none;}.cls-2{fill:#ffd401;}.cls-11,.cls-3,.cls-6{fill:#0379b7;}.cls-4{fill:#fad000;}.cls-5{clip-path:url(#clip-path);}.cls-6,.cls-8{stroke:#000;stroke-linejoin:bevel;stroke-width:1.25px;}.cls-7{fill:#ecd21d;}.cls-9{fill:#0e2f38;}.cls-10,.cls-11{stroke:#f9d004;stroke-miterlimit:10;}.cls-11{stroke-width:0.5px;}.cls-12{fill:#e8d226;}.cls-13{fill:#fff;}</style><clipPath id="clip-path"><circle class="cls-1" cx="67.55" cy="67.55" r="46.68"/></clipPath></defs><g id="Layer_2" data-name="Layer 2"><g id="Layer_2-2" data-name="Layer 2"><circle class="cls-2" cx="67.55" cy="67.55" r="67.55"/><circle class="cls-3" cx="67.55" cy="67.4" r="65.1"/><circle class="cls-4" cx="67.55" cy="67.55" r="59.83" transform="translate(-27.98 67.55) rotate(-45)"/><path d="M67.55,8.35a59.21,59.21,0,1,1-59.2,59.2,59.2,59.2,0,0,1,59.2-59.2m0-1.25A60.46,60.46,0,1,0,128,67.55,60.52,60.52,0,0,0,67.55,7.1Z"/><g class="cls-5"><circle class="cls-6" cx="67.55" cy="67.55" r="46.68"/><g id="f"><g id="e"><path class="cls-7" d="M27.23,38.58s-.63-.54-.85-.27c-.35.43,1.07,2.59,1.07,3.34,0,1.25-.83,1.59-1.85,1.76a7.26,7.26,0,0,1-1.81,0,.8.8,0,0,1,.7-.39,1.48,1.48,0,0,1-.8-1.34c0-1.07.44-1.51.44-2.72a3.54,3.54,0,0,0-.55-1.52,1.3,1.3,0,0,1,1.18,1.71.46.46,0,0,0,.42-.12.72.72,0,0,1-.19.63c.12.06.21,0,.4,0a.88.88,0,0,1-.44.63,1,1,0,0,1,1.4,1,.76.76,0,0,1-.66.82.63.63,0,0,1-.35-.11.56.56,0,0,0,0,.44c-.24-.06-.39-.2-.28-.5a.63.63,0,0,1-.44-.2.53.53,0,0,1,.44-.2c-.14-.28,0-.43.23-.56,0,0-.14.56.22.56.16,0,.3-.05.3-.29a.51.51,0,0,0-.59-.47c-.42,0-.75.29-.75,1s.49.91,1.14.93a.89.89,0,0,0,1-.9c0-.8-1.16-2.64-1.16-3.35a.88.88,0,0,1,.95-.84,1.74,1.74,0,0,1,1.13.61l-.36.45Z"/><path id="d" class="cls-7" d="M27.37,53.11a2.1,2.1,0,0,1-2.16,2,1.74,1.74,0,0,1-1.95-1.77,3,3,0,0,1,.36-1.46l2.93-6.08a1.81,1.81,0,0,0,.13-.8,1.07,1.07,0,0,0-2.13,0c0,.67.34,1,.7,1s.61-.18.61-.48-.1-.31-.25-.31c-.38,0-.27.5-.27.5a.34.34,0,0,1-.25-.47.66.66,0,0,1-.37-.21.64.64,0,0,1,.37-.2.34.34,0,0,1,.28-.49.57.57,0,0,0,0,.31.76.76,0,0,1,1,.76A1.09,1.09,0,0,1,25,46.55a.63.63,0,0,1,.34.54A1.32,1.32,0,0,0,25,47a1.13,1.13,0,0,1,.24.7c-.16-.07-.32-.21-.53-.12a1.3,1.3,0,0,1-1.12,1.77A2.18,2.18,0,0,0,24.14,48c0-1.56-.43-1.82-.43-2.9a1.59,1.59,0,0,1,.69-1.28v0a.91.91,0,0,1-.61-.44,4.27,4.27,0,0,1,2.25,0,1.7,1.7,0,0,1,1.19.8,2.4,2.4,0,0,1,0,1.92c-.41.86-2.36,5-3,6.31a2,2,0,0,0-.21.88,1.1,1.1,0,0,0,1.14,1.08,1,1,0,0,0,1-.85c0-.3-.17-.48-.4-.48-.56,0-.53.48-.42.78a.71.71,0,0,1-.49-.73.88.88,0,0,1-.56-.32.73.73,0,0,1,.56-.31c-.11-.46.19-.65.49-.76-.09.34-.15.73.42.73a1.06,1.06,0,0,1,.94.34c0-.36,0-1.79,0-1.79,0-.54-.72-.52-1.19-.36A1.12,1.12,0,0,1,27,49.75a.68.68,0,0,1-.42-.65,1.73,1.73,0,0,1,.67-1.23l.14,5.24Z"/><path id="d-2" data-name="d" class="cls-7" d="M27.37,57.14a2.1,2.1,0,0,0-2.16-2,1.74,1.74,0,0,0-1.95,1.76,3,3,0,0,0,.36,1.47l2.93,6.08a1.81,1.81,0,0,1,.13.8,1.07,1.07,0,0,1-2.13,0c0-.67.34-1,.7-1s.61.18.61.49-.1.31-.25.31c-.38,0-.27-.51-.27-.51a.34.34,0,0,0-.25.47.74.74,0,0,0-.37.22.71.71,0,0,0,.37.2.34.34,0,0,0,.28.49.57.57,0,0,1,0-.31.77.77,0,0,0,1-.76A1.09,1.09,0,0,0,25,63.71a.63.63,0,0,0,.34-.54,1.32,1.32,0,0,1-.34.07,1.14,1.14,0,0,0,.24-.71c-.16.08-.32.22-.53.13a1.3,1.3,0,0,0-1.12-1.77,2.18,2.18,0,0,1,.57,1.41c0,1.56-.43,1.82-.43,2.9a1.62,1.62,0,0,0,.69,1.28v0a.93.93,0,0,0-.61.43,4.07,4.07,0,0,0,2.25,0,1.66,1.66,0,0,0,1.19-.79,2.4,2.4,0,0,0,0-1.92l-3-6.31a2.08,2.08,0,0,1-.21-.89,1.1,1.1,0,0,1,1.14-1.07,1,1,0,0,1,1,.85c0,.3-.17.48-.4.48-.56,0-.53-.48-.42-.78a.71.71,0,0,0-.49.73.88.88,0,0,0-.56.32.73.73,0,0,0,.56.31c-.11.45.19.65.49.76-.09-.34-.15-.73.42-.73a1.06,1.06,0,0,0,.94-.34c0,.36,0,1.79,0,1.79,0,.54-.72.52-1.19.36a1.12,1.12,0,0,0,1.39.87.67.67,0,0,0-.42.65,1.75,1.75,0,0,0,.67,1.23l.14-5.25Z"/></g><g id="e-2" data-name="e"><path class="cls-7" d="M27.23,38.58s.64-.54.86-.27c.35.43-1.07,2.59-1.07,3.34,0,1.25.83,1.59,1.85,1.76a7.26,7.26,0,0,0,1.81,0A.8.8,0,0,0,30,43a1.48,1.48,0,0,0,.79-1.34c0-1.07-.44-1.51-.44-2.72a3.54,3.54,0,0,1,.55-1.52,1.29,1.29,0,0,0-1.17,1.71.46.46,0,0,1-.42-.12.72.72,0,0,0,.19.63c-.12.06-.21,0-.4,0a.88.88,0,0,0,.44.63,1.06,1.06,0,0,0-1.41,1,.77.77,0,0,0,.67.82.66.66,0,0,0,.35-.11.56.56,0,0,1,0,.44c.24-.06.39-.2.28-.5a.6.6,0,0,0,.43-.2.5.5,0,0,0-.43-.2c.14-.28,0-.43-.23-.56,0,0,.14.56-.22.56-.16,0-.31-.05-.31-.29a.52.52,0,0,1,.6-.47c.41,0,.75.29.75,1s-.49.91-1.14.93a.89.89,0,0,1-1-.9c0-.8,1.16-2.64,1.16-3.35a.89.89,0,0,0-1-.84,1.78,1.78,0,0,0-1.13.61l.36.45Z"/><path id="d-3" data-name="d" class="cls-7" d="M27.1,53.11a2.1,2.1,0,0,0,2.15,2,1.75,1.75,0,0,0,2-1.77,3,3,0,0,0-.36-1.46l-2.93-6.08a1.79,1.79,0,0,1-.14-.8,1.07,1.07,0,0,1,2.14,0c0,.67-.35,1-.7,1s-.62-.18-.62-.48.11-.31.26-.31c.37,0,.27.5.27.5a.35.35,0,0,0,.25-.47.69.69,0,0,0,.37-.21.64.64,0,0,0-.37-.2.34.34,0,0,0-.28-.49.48.48,0,0,1,0,.31.76.76,0,0,0-1,.76,1.09,1.09,0,0,0,1.37,1.12.63.63,0,0,0-.34.54,1.32,1.32,0,0,1,.34-.07,1.08,1.08,0,0,0-.24.7c.16-.07.32-.21.53-.12a1.29,1.29,0,0,0,1.12,1.77A2.13,2.13,0,0,1,30.33,48c0-1.56.43-1.82.43-2.9a1.59,1.59,0,0,0-.69-1.28v0a.91.91,0,0,0,.61-.44,4.31,4.31,0,0,0-2.26,0,1.72,1.72,0,0,0-1.19.8,2.49,2.49,0,0,0,0,1.92c.42.86,2.37,5,3,6.31a2,2,0,0,1,.21.88,1.11,1.11,0,0,1-1.15,1.08,1,1,0,0,1-1-.85c0-.3.16-.48.4-.48.56,0,.52.48.41.78a.72.72,0,0,0,.5-.73.9.9,0,0,0,.56-.32.73.73,0,0,0-.56-.31c.11-.46-.2-.65-.5-.76.1.34.16.73-.41.73a1.06,1.06,0,0,0-.94.34L27.68,51c0-.54.72-.52,1.2-.36a1.12,1.12,0,0,0-1.39-.87.68.68,0,0,0,.42-.65,1.71,1.71,0,0,0-.68-1.23l-.13,5.24Z"/><path id="d-4" data-name="d" class="cls-7" d="M27.1,57.14a2.1,2.1,0,0,1,2.15-2,1.74,1.74,0,0,1,2,1.76,3,3,0,0,1-.36,1.47l-2.93,6.08a1.79,1.79,0,0,0-.14.8,1.07,1.07,0,0,0,2.14,0c0-.67-.35-1-.7-1s-.62.18-.62.49.11.31.26.31c.37,0,.27-.51.27-.51a.35.35,0,0,1,.25.47.78.78,0,0,1,.37.22.71.71,0,0,1-.37.2.34.34,0,0,1-.28.49.48.48,0,0,0,0-.31.77.77,0,0,1-1-.76,1.09,1.09,0,0,1,1.37-1.12.63.63,0,0,1-.34-.54,1.32,1.32,0,0,0,.34.07,1.09,1.09,0,0,1-.24-.71c.16.08.32.22.53.13-.34-.66.07-1.56,1.12-1.77a2.13,2.13,0,0,0-.57,1.41c0,1.56.43,1.82.43,2.9a1.62,1.62,0,0,1-.69,1.28v0a.93.93,0,0,1,.61.43,4.11,4.11,0,0,1-2.26,0,1.68,1.68,0,0,1-1.19-.79,2.49,2.49,0,0,1,0-1.92c.42-.87,2.37-5,3-6.31a2.08,2.08,0,0,0,.21-.89,1.11,1.11,0,0,0-1.15-1.07,1,1,0,0,0-1,.85c0,.3.16.48.4.48.56,0,.52-.48.41-.78a.72.72,0,0,1,.5.73.9.9,0,0,1,.56.32.73.73,0,0,1-.56.31c.11.45-.2.65-.5.76.1-.34.16-.73-.41-.73a1.06,1.06,0,0,1-.94-.34l-.05,1.79c0,.54.72.52,1.2.36a1.12,1.12,0,0,1-1.39.87.67.67,0,0,1,.42.65,1.73,1.73,0,0,1-.68,1.23l-.13-5.25Z"/></g></g><g id="f-2" data-name="f"><g id="e-3" data-name="e"><path class="cls-7" d="M27.23,95.21s-.63.54-.85.27c-.35-.43,1.07-2.59,1.07-3.34,0-1.25-.83-1.58-1.85-1.76a7.26,7.26,0,0,0-1.81.05.8.8,0,0,0,.7.39,1.48,1.48,0,0,0-.8,1.34c0,1.07.44,1.51.44,2.72a3.54,3.54,0,0,1-.55,1.52,1.3,1.3,0,0,0,1.18-1.71.46.46,0,0,1,.42.12.72.72,0,0,0-.19-.63c.12-.06.21,0,.4,0a.88.88,0,0,0-.44-.63,1,1,0,0,0,1.4-1,.76.76,0,0,0-.66-.82.63.63,0,0,0-.35.11.56.56,0,0,1,0-.44c-.24.06-.39.2-.28.5a.63.63,0,0,0-.44.2.53.53,0,0,0,.44.2c-.14.28,0,.43.23.56,0,0-.14-.56.22-.56.16,0,.3,0,.3.29a.51.51,0,0,1-.59.47c-.42,0-.75-.29-.75-1s.49-.91,1.14-.93a.89.89,0,0,1,1,.9c0,.8-1.16,2.64-1.16,3.35a.88.88,0,0,0,.95.84,1.74,1.74,0,0,0,1.13-.61l-.36-.45Z"/><path id="d-5" data-name="d" class="cls-7" d="M27.37,80.68a2.1,2.1,0,0,0-2.16-2,1.74,1.74,0,0,0-1.95,1.77,3,3,0,0,0,.36,1.46L26.55,88a1.81,1.81,0,0,1,.13.8,1.07,1.07,0,0,1-2.13,0c0-.67.34-1,.7-1s.61.18.61.48-.1.31-.25.31c-.38,0-.27-.5-.27-.5a.34.34,0,0,0-.25.47.66.66,0,0,0-.37.21.64.64,0,0,0,.37.2.33.33,0,0,0,.28.49.57.57,0,0,1,0-.31.76.76,0,0,0,1-.76A1.09,1.09,0,0,0,25,87.24a.63.63,0,0,0,.34-.54,1.32,1.32,0,0,1-.34.07,1.13,1.13,0,0,0,.24-.7c-.16.07-.32.21-.53.12a1.3,1.3,0,0,0-1.12-1.77,2.18,2.18,0,0,1,.57,1.41c0,1.56-.43,1.82-.43,2.9A1.59,1.59,0,0,0,24.4,90v0a.91.91,0,0,0-.61.44,4.27,4.27,0,0,0,2.25,0,1.7,1.7,0,0,0,1.19-.8,2.4,2.4,0,0,0,0-1.92c-.41-.86-2.36-5-3-6.31a2,2,0,0,1-.21-.88,1.1,1.1,0,0,1,1.14-1.08,1,1,0,0,1,1,.85c0,.3-.17.48-.4.48-.56,0-.53-.48-.42-.78a.71.71,0,0,0-.49.73.88.88,0,0,0-.56.32.73.73,0,0,0,.56.31c-.11.46.19.65.49.76-.09-.34-.15-.73.42-.73a1.06,1.06,0,0,0,.94-.34c0,.36,0,1.79,0,1.79,0,.54-.72.52-1.19.36A1.12,1.12,0,0,0,27,84a.68.68,0,0,0-.42.65,1.73,1.73,0,0,0,.67,1.23l.14-5.24Z"/><path id="d-6" data-name="d" class="cls-7" d="M27.37,76.65a2.1,2.1,0,0,1-2.16,2,1.74,1.74,0,0,1-1.95-1.76,3,3,0,0,1,.36-1.47l2.93-6.07a1.88,1.88,0,0,0,.13-.81,1.07,1.07,0,0,0-2.13,0c0,.67.34,1,.7,1s.61-.18.61-.49-.1-.31-.25-.31c-.38,0-.27.51-.27.51a.34.34,0,0,1-.25-.47.67.67,0,0,1-.37-.22.71.71,0,0,1,.37-.2.34.34,0,0,1,.28-.49.57.57,0,0,0,0,.31.77.77,0,0,1,1,.76A1.09,1.09,0,0,1,25,70.08a.63.63,0,0,1,.34.54,1.32,1.32,0,0,0-.34-.07,1.17,1.17,0,0,1,.24.71c-.16-.08-.32-.22-.53-.13a1.3,1.3,0,0,1-1.12,1.77,2.18,2.18,0,0,0,.57-1.41c0-1.56-.43-1.82-.43-2.9a1.62,1.62,0,0,1,.69-1.28v0a.93.93,0,0,1-.61-.43,4.07,4.07,0,0,1,2.25,0,1.66,1.66,0,0,1,1.19.79,2.4,2.4,0,0,1,0,1.92l-3,6.31a2.08,2.08,0,0,0-.21.89,1.1,1.1,0,0,0,1.14,1.07,1,1,0,0,0,1-.85c0-.3-.17-.48-.4-.48-.56,0-.53.48-.42.78a.71.71,0,0,1-.49-.73.88.88,0,0,1-.56-.32.73.73,0,0,1,.56-.31c-.11-.45.19-.65.49-.76-.09.34-.15.73.42.73a1.06,1.06,0,0,1,.94.34c0-.36,0-1.79,0-1.79,0-.54-.72-.52-1.19-.36A1.12,1.12,0,0,1,27,73.28a.67.67,0,0,1-.42-.65,1.75,1.75,0,0,1,.67-1.23l.14,5.25Z"/></g><g id="e-4" data-name="e"><path class="cls-7" d="M27.23,95.21s.64.54.86.27c.35-.43-1.07-2.59-1.07-3.34,0-1.25.83-1.58,1.85-1.76a7.26,7.26,0,0,1,1.81.05.8.8,0,0,1-.7.39,1.48,1.48,0,0,1,.79,1.34c0,1.07-.44,1.51-.44,2.72a3.54,3.54,0,0,0,.55,1.52,1.29,1.29,0,0,1-1.17-1.71.46.46,0,0,0-.42.12.72.72,0,0,1,.19-.63c-.12-.06-.21,0-.4,0a.88.88,0,0,1,.44-.63,1.06,1.06,0,0,1-1.41-1,.77.77,0,0,1,.67-.82.66.66,0,0,1,.35.11.56.56,0,0,0,0-.44c.24.06.39.2.28.5a.6.6,0,0,1,.43.2.5.5,0,0,1-.43.2c.14.28,0,.43-.23.56,0,0,.14-.56-.22-.56-.16,0-.31,0-.31.29a.52.52,0,0,0,.6.47c.41,0,.75-.29.75-1s-.49-.91-1.14-.93a.89.89,0,0,0-1,.9c0,.8,1.16,2.64,1.16,3.35a.89.89,0,0,1-1,.84,1.78,1.78,0,0,1-1.13-.61l.36-.45Z"/><path id="d-7" data-name="d" class="cls-7" d="M27.1,80.68a2.1,2.1,0,0,1,2.15-2,1.75,1.75,0,0,1,2,1.77,3,3,0,0,1-.36,1.46L27.92,88a1.79,1.79,0,0,0-.14.8,1.07,1.07,0,0,0,2.14,0c0-.67-.35-1-.7-1s-.62.18-.62.48.11.31.26.31c.37,0,.27-.5.27-.5a.35.35,0,0,1,.25.47.69.69,0,0,1,.37.21.64.64,0,0,1-.37.2.33.33,0,0,1-.28.49.48.48,0,0,0,0-.31.76.76,0,0,1-1-.76,1.09,1.09,0,0,1,1.37-1.12.63.63,0,0,1-.34-.54,1.32,1.32,0,0,0,.34.07,1.08,1.08,0,0,1-.24-.7c.16.07.32.21.53.12a1.29,1.29,0,0,1,1.12-1.77,2.13,2.13,0,0,0-.57,1.41c0,1.56.43,1.82.43,2.9A1.59,1.59,0,0,1,30.07,90v0a.91.91,0,0,1,.61.44,4.31,4.31,0,0,1-2.26,0,1.72,1.72,0,0,1-1.19-.8,2.49,2.49,0,0,1,0-1.92c.42-.86,2.37-5,3-6.31a2,2,0,0,0,.21-.88,1.11,1.11,0,0,0-1.15-1.08,1,1,0,0,0-1,.85c0,.3.16.48.4.48.56,0,.52-.48.41-.78a.72.72,0,0,1,.5.73.9.9,0,0,1,.56.32.73.73,0,0,1-.56.31c.11.46-.2.65-.5.76.1-.34.16-.73-.41-.73a1.06,1.06,0,0,1-.94-.34l-.05,1.79c0,.54.72.52,1.2.36a1.12,1.12,0,0,1-1.39.87.68.68,0,0,1,.42.65,1.71,1.71,0,0,1-.68,1.23l-.13-5.24Z"/><path id="d-8" data-name="d" class="cls-7" d="M27.1,76.65a2.1,2.1,0,0,0,2.15,2,1.74,1.74,0,0,0,2-1.76,3,3,0,0,0-.36-1.47l-2.93-6.07a1.87,1.87,0,0,1-.14-.81,1.07,1.07,0,0,1,2.14,0c0,.67-.35,1-.7,1s-.62-.18-.62-.49.11-.31.26-.31c.37,0,.27.51.27.51a.35.35,0,0,0,.25-.47.71.71,0,0,0,.37-.22.71.71,0,0,0-.37-.2.34.34,0,0,0-.28-.49.48.48,0,0,1,0,.31.77.77,0,0,0-1,.76,1.08,1.08,0,0,0,1.37,1.12.63.63,0,0,0-.34.54,1.32,1.32,0,0,1,.34-.07,1.11,1.11,0,0,0-.24.71c.16-.08.32-.22.53-.13-.34.66.07,1.56,1.12,1.77a2.13,2.13,0,0,1-.57-1.41c0-1.56.43-1.82.43-2.9a1.62,1.62,0,0,0-.69-1.28v0a.93.93,0,0,0,.61-.43,4.11,4.11,0,0,0-2.26,0,1.68,1.68,0,0,0-1.19.79,2.49,2.49,0,0,0,0,1.92c.42.87,2.37,5,3,6.31a2.08,2.08,0,0,1,.21.89,1.11,1.11,0,0,1-1.15,1.07,1,1,0,0,1-1-.85c0-.3.16-.48.4-.48.56,0,.52.48.41.78a.72.72,0,0,0,.5-.73.9.9,0,0,0,.56-.32.73.73,0,0,0-.56-.31c.11-.45-.2-.65-.5-.76.1.34.16.73-.41.73a1.06,1.06,0,0,0-.94.34l-.05-1.79c0-.54.72-.52,1.2-.36a1.12,1.12,0,0,0-1.39-.87.67.67,0,0,0,.42-.65,1.73,1.73,0,0,0-.68-1.23l-.13,5.25Z"/></g></g><circle class="cls-8" cx="67.55" cy="67.55" r="46.68"/></g><path class="cls-9" d="M54.69,117.49l-.81-.12-1.79,5.41.73.39-.2.6L50.15,123l.2-.6.81.12.77-2.3-.72-.24-2.7,1.74.49.24-.2.6-2.18-.73.2-.59.69.09,3-1.91-1.36-3.59-.61-.34.2-.59,2.26.75-.2.59-.55-.11,1.16,3.09.8.27.78-2.38-.72-.38.19-.6,2.47.82Zm-5.43-4.34.93.31-.73,2.21-.93-.31Z"/><path class="cls-9" d="M45,113.08c0,.14-.07.27-.11.38s-.07.22-.11.33a2.22,2.22,0,0,1,.89-.24,1.84,1.84,0,0,1,.93.17,1.79,1.79,0,0,1,1,.92,1.46,1.46,0,0,1-.1,1.23,1.33,1.33,0,0,1-1.06.8,3,3,0,0,1-1.71-.35l-.91-.44-.27.57a.91.91,0,0,0,0,.8,1.14,1.14,0,0,0,.63.61,2.08,2.08,0,0,0,.62.19,1.1,1.1,0,0,0,.52,0l.34-.46.68.32-.44.94a2.79,2.79,0,0,1-1,0,3.94,3.94,0,0,1-1.1-.33,2.28,2.28,0,0,1-1.14-1.06,1.66,1.66,0,0,1,.07-1.45l1.11-2.34a1.42,1.42,0,0,0,.08-.18,1.54,1.54,0,0,0,.08-.19l-.34-.22.27-.56Zm1.11,1.32a1.67,1.67,0,0,0-.9-.17,1.38,1.38,0,0,0-.76.26l-.38.8.94.45a1.48,1.48,0,0,0,1,.15.84.84,0,0,0,.61-.46.66.66,0,0,0,0-.58A1,1,0,0,0,46.13,114.4Z"/><path class="cls-9" d="M39.81,113.75a1.07,1.07,0,0,0-.73-.21.71.71,0,0,0-.49.37.75.75,0,0,0-.08.62,1.1,1.1,0,0,0,.53.6,1.18,1.18,0,0,0,.79.19.69.69,0,0,0,.58-.34l.79.49v0a1.27,1.27,0,0,1-1.06.67,2.82,2.82,0,0,1-2.53-1.51,1.36,1.36,0,0,1,.15-1.26,1.13,1.13,0,0,1,.53-.46,1.41,1.41,0,0,1,.77-.09,1.48,1.48,0,0,1-.34-.76,1.28,1.28,0,0,1,.2-.79,1.37,1.37,0,0,1,1.11-.7,2.46,2.46,0,0,1,1.53.43,2.62,2.62,0,0,1,1.07,1.15,1.34,1.34,0,0,1-.13,1.36l0,0-.8-.48a.84.84,0,0,0,.06-.73,1.25,1.25,0,0,0-.57-.68,1.2,1.2,0,0,0-.83-.22.74.74,0,0,0-.57.37.73.73,0,0,0-.11.67,1.26,1.26,0,0,0,.57.59l.8.48-.41.68Z"/><path class="cls-9" d="M36.25,107.45a3.76,3.76,0,0,1-.18.35l-.18.3a2.18,2.18,0,0,1,.92,0,1.69,1.69,0,0,1,.87.36,1.79,1.79,0,0,1,.77,1.1,1.48,1.48,0,0,1-.35,1.18,1.34,1.34,0,0,1-1.21.57,3,3,0,0,1-1.6-.7l-.81-.62-.38.5a1,1,0,0,0-.21.78,1.15,1.15,0,0,0,.49.72,2.38,2.38,0,0,0,.57.32,1.23,1.23,0,0,0,.52.07l.43-.39.6.46-.63.83a2.8,2.8,0,0,1-1-.17,3.5,3.5,0,0,1-1-.54,2.26,2.26,0,0,1-.9-1.27,1.65,1.65,0,0,1,.36-1.41l1.57-2.06a.83.83,0,0,0,.12-.16l.12-.17-.29-.28.38-.5Zm.82,1.52a1.82,1.82,0,0,0-.85-.35,1.48,1.48,0,0,0-.8.09l-.53.71.83.63a1.51,1.51,0,0,0,.92.36.85.85,0,0,0,.69-.33.67.67,0,0,0,.15-.56A1,1,0,0,0,37.07,109Z"/><path class="cls-9" d="M31.42,109.66l-.43.46-1.88-1.8.44-.46.68.46,1-1.08-.37-.36-1.85.31a3.07,3.07,0,0,1-.88,0,1.07,1.07,0,0,1-.62-.3.86.86,0,0,1-.23-.3,1.52,1.52,0,0,1-.12-.36l.56-.38.15.2.09.09a.54.54,0,0,0,.35.15,1.36,1.36,0,0,0,.45,0l1.68-.25.21-2.67-.41-.56.43-.46.95.91-.27,2.9.45.45,1.06-1.1-.49-.66.43-.45,1.87,1.8-.43.45-.68-.46L30.94,109Zm.53-8.55.71.68-1.61,1.67-.71-.68Z"/><path class="cls-9" d="M28.35,100.57a1.26,1.26,0,0,0-.77-.46.92.92,0,0,0-.81.18l-.56-.67,0,0a1.49,1.49,0,0,1,1.34-.31,2.24,2.24,0,0,1,1.37.81A2.16,2.16,0,0,1,29.5,102a2.93,2.93,0,0,1-1.09,1.71l-.16.13a3,3,0,0,1-1.87.75,2.17,2.17,0,0,1-1.73-.89,3,3,0,0,1-.58-1,2.3,2.3,0,0,1-.09-1l.89-.8.5.6-.52.71a1.25,1.25,0,0,0,.08.52,1.67,1.67,0,0,0,.31.54,1.18,1.18,0,0,0,1.13.49,2.72,2.72,0,0,0,1.26-.61l.16-.14a2.72,2.72,0,0,0,.85-1.12A1.21,1.21,0,0,0,28.35,100.57Z"/><path class="cls-9" d="M19.78,96.67l1.34-.88.46.7-.66.53.64,1,3.21-2.12-.33-.75.52-.35,1.43,2.17-.52.35-.56-.6L22.09,98.8l.63.94.74-.4.46.7-1.34.88Z"/><path class="cls-9" d="M22.39,90.08a3.78,3.78,0,0,1-.32.24l-.3.19a2.32,2.32,0,0,1,.86.36,1.7,1.7,0,0,1,.63.7,1.77,1.77,0,0,1,.22,1.32,1.54,1.54,0,0,1-.83.92,1.34,1.34,0,0,1-1.33,0,3,3,0,0,1-1.14-1.32l-.46-.9-.56.29a1,1,0,0,0-.53.61,1.18,1.18,0,0,0,.13.86,1.85,1.85,0,0,0,.38.53,1.16,1.16,0,0,0,.44.29l.55-.16.35.67-.93.47a2.87,2.87,0,0,1-.83-.57,3.82,3.82,0,0,1-.67-.93,2.21,2.21,0,0,1-.26-1.53A1.63,1.63,0,0,1,18.72,91L21,89.8l.19-.09.17-.1-.14-.38.56-.29Zm.08,1.73a1.63,1.63,0,0,0-.62-.68,1.39,1.39,0,0,0-.76-.26l-.79.4.48.93a1.45,1.45,0,0,0,.68.72.82.82,0,0,0,.76,0,.63.63,0,0,0,.38-.44A1,1,0,0,0,22.47,91.81Z"/><path class="cls-9" d="M17.06,90l-.59.22-.9-2.44.59-.22.41.71L18,87.75l-.82-2.25L15.75,86l.15.81-.6.22L15,86.31l-.33-.93-.28-.76L15,84.4l.41.72L19,83.79,18.86,83l.59-.21.9,2.44-.59.22-.41-.72-1.42.53.82,2.24L20.18,87,20,86.15l.59-.22.9,2.44-.59.22-.41-.71L16.91,89.2Z"/><path class="cls-9" d="M11,77.79a2.53,2.53,0,0,1,.27-1.87A2.06,2.06,0,0,1,12.68,75a2.05,2.05,0,0,1,1.66.36,2.64,2.64,0,0,1,.9,1.68l.26,1.51,2.11-.37v-.82l.62-.11.45,2.56-.62.11-.27-.78-5.62,1V81l-.62.11-.14-.8Zm3.78.9-.27-1.51a1.44,1.44,0,0,0-.58-1,1.42,1.42,0,0,0-1-.18,1.37,1.37,0,0,0-.93.53,1.39,1.39,0,0,0-.2,1.15L12,79.17Z"/><path class="cls-9" d="M17.6,71.16A2.25,2.25,0,0,1,17,73a2.73,2.73,0,0,1-1.9.78l-.21,0a2.8,2.8,0,0,1-1.95-.57A2.11,2.11,0,0,1,12,71.64,2,2,0,0,1,12.6,70a2.56,2.56,0,0,1,1.71-.66l.61,0,.21,3.48,0,0a2.1,2.1,0,0,0,1.25-.47,1.25,1.25,0,0,0,.44-1.09,2.42,2.42,0,0,0-.2-.86,2.12,2.12,0,0,0-.42-.62l.61-.42a2.3,2.3,0,0,1,.51.73A2.85,2.85,0,0,1,17.6,71.16Zm-4.79.43a1.07,1.07,0,0,0,.46.82,2,2,0,0,0,1.07.36h0l-.15-2.48h-.13a1.56,1.56,0,0,0-.94.37A1.06,1.06,0,0,0,12.81,71.59Z"/><path class="cls-9" d="M16.81,65.9a1.36,1.36,0,0,0-.26-.87.93.93,0,0,0-.73-.4l0-.88h0a1.5,1.5,0,0,1,1.21.67,2.24,2.24,0,0,1,.47,1.52,2.16,2.16,0,0,1-.84,1.76,2.93,2.93,0,0,1-2,.53h-.21a3,3,0,0,1-1.88-.71A2.12,2.12,0,0,1,12,65.69a3,3,0,0,1,.26-1.15,2.51,2.51,0,0,1,.62-.83h1.2l0,.78-.85.18a1.25,1.25,0,0,0-.29.43,1.7,1.7,0,0,0-.13.61,1.19,1.19,0,0,0,.5,1.13,2.75,2.75,0,0,0,1.35.39h.21A2.67,2.67,0,0,0,16.21,67,1.17,1.17,0,0,0,16.81,65.9Z"/><path class="cls-9" d="M17,62.91v-.82l-3.79-.63-.27.78-.62-.1,1-5.9.62.11v.82l3.79.62L18,57l.62.11-.42,2.56-.62-.1v-.82l-3.78-.63-.39,2.37,3.78.62.27-.78.62.11L17.6,63Z"/><path class="cls-9" d="M15.64,50.2l-.06.48,4.7,3.52A2.89,2.89,0,0,1,21,55a1.4,1.4,0,0,1,.09,1.11,2.2,2.2,0,0,1-.11.27,1.54,1.54,0,0,1-.13.26l-.71-.31a.9.9,0,0,1,.06-.17l.09-.24a.6.6,0,0,0-.12-.57,3.37,3.37,0,0,0-.5-.5l-.47-.38-4.88.42-.21.45-.61-.18.61-2.09.61.18-.08.61,2.81-.14.71,0v0l-2.89-2-.27.56-.6-.18L15,50Z"/><path class="cls-9" d="M16.73,46.66A2.07,2.07,0,0,1,18,45.43a2.61,2.61,0,0,1,1.85.13l.1,0a2.73,2.73,0,0,1,1.49,1.33,2.18,2.18,0,0,1,0,1.9,2.22,2.22,0,0,1-1.36,1.34,2.76,2.76,0,0,1-2-.14l-.64-.27a4.28,4.28,0,0,1-2.08-1.6,2.78,2.78,0,0,1-.38-2.1,3.3,3.3,0,0,0,.1-.94.56.56,0,0,0-.37-.46L15,44h0c.54.22.84.5.9.83a3.64,3.64,0,0,1-.13,1.42,2.37,2.37,0,0,0,0,1.27,1.82,1.82,0,0,0,.87,1h0a2.42,2.42,0,0,1-.18-.88A2.26,2.26,0,0,1,16.73,46.66Zm.63.48a1.24,1.24,0,0,0,0,1.16,1.93,1.93,0,0,0,1,.8l.1,0a2.36,2.36,0,0,0,1.37.19,1.35,1.35,0,0,0,.83-2,2.28,2.28,0,0,0-1.09-.85l-.1,0a1.88,1.88,0,0,0-1.24-.13A1.27,1.27,0,0,0,17.36,47.14Z"/><path class="cls-9" d="M19.55,41.91l1.33.76a4.87,4.87,0,0,1,1.82,1.52,1.53,1.53,0,0,1-.06,1.62l-.14.24-.72-.43.1-.18a.74.74,0,0,0-.09-.89,5,5,0,0,0-1.4-1l-1.32-.76-.53.64L18,43.09l2.27-4,.4-.7.55.31-.28.78,3.34,1.9.52-.64.54.31-1.28,2.26L23.51,43l.28-.77-3.33-1.9Z"/><path class="cls-9" d="M23,35.12l.5.38-.38.74,2.43,1.83,0,0L24,33.86l.59-.79.49-.64.5.38-.38.73,3.07,2.32.6-.57.5.38-1.57,2.07-.5-.37.38-.73L25.22,34.8l0,0L26.81,39l-1.08,1.43-.5-.38.38-.73L22.55,37l-.6.56-.51-.38,1.08-1.42Z"/><path class="cls-9" d="M26.42,31.82,26,31.38l1.82-1.86.45.44-.47.68,1.08,1.05.36-.37-.29-1.86a3,3,0,0,1-.05-.87,1,1,0,0,1,.3-.62,1,1,0,0,1,.31-.23,2.5,2.5,0,0,1,.36-.12l.38.57-.2.15-.1.09a.6.6,0,0,0-.15.35,1.31,1.31,0,0,0,0,.44L30,30.91l2.66.23.57-.41.45.44-.91.93-2.91-.29-.44.46,1.08,1.06.67-.49.45.44-1.82,1.86-.45-.44.47-.67-2.75-2.69Z"/><path class="cls-9" d="M36.81,28.63l-.3-.26-.25-.24a2.25,2.25,0,0,1-.16.91,1.91,1.91,0,0,1-.55.76,1.84,1.84,0,0,1-1.25.49,1.53,1.53,0,0,1-1.07-.62A1.37,1.37,0,0,1,33,28.36,3,3,0,0,1,34,27l.78-.64-.4-.48a.92.92,0,0,0-.7-.39,1.15,1.15,0,0,0-.82.31,1.78,1.78,0,0,0-.44.48,1.16,1.16,0,0,0-.19.49l.28.5-.59.48-.66-.81a3.08,3.08,0,0,1,.39-.93,3.83,3.83,0,0,1,.77-.85,2.25,2.25,0,0,1,1.45-.57,1.62,1.62,0,0,1,1.28.68l1.63,2,.13.15.14.15.34-.21.4.48Zm-1.67.44a1.71,1.71,0,0,0,.54-.74,1.43,1.43,0,0,0,.09-.8l-.55-.68-.81.65a1.58,1.58,0,0,0-.57.82.86.86,0,0,0,.16.75.7.7,0,0,0,.51.28A1,1,0,0,0,35.14,29.07Z"/><path class="cls-9" d="M40,25.59a1.31,1.31,0,0,0,.55-.72.91.91,0,0,0-.09-.82l.74-.48,0,0A1.51,1.51,0,0,1,41.36,25a2.22,2.22,0,0,1-1,1.27,2.18,2.18,0,0,1-1.92.34,2.93,2.93,0,0,1-1.57-1.28l-.11-.17a2.93,2.93,0,0,1-.53-1.95,2.2,2.2,0,0,1,1.08-1.62,3.16,3.16,0,0,1,1.09-.45,2.27,2.27,0,0,1,1,0l.68,1-.65.43-.64-.59a1.31,1.31,0,0,0-.52,0,1.82,1.82,0,0,0-.58.25,1.2,1.2,0,0,0-.62,1.07,2.62,2.62,0,0,0,.47,1.32l.11.17a2.55,2.55,0,0,0,1,1A1.17,1.17,0,0,0,40,25.59Z"/><path class="cls-9" d="M42.06,18.89l.79,1.67,1.2-.56a2.17,2.17,0,0,1,1.56-.2,1.79,1.79,0,0,1,1.08,2.3,2.08,2.08,0,0,1-1.13,1.09l-2.82,1.33L42.47,24l.67-.47L41.5,20l-.79.22-.27-.57.74-.35Zm.73-.34.27.57-.67.47-.33-.7Zm.39,2.71.85,1.8,1.2-.56a1,1,0,0,0,.59-.59,1,1,0,0,0-.07-.74,1.07,1.07,0,0,0-.53-.54,1,1,0,0,0-.84.06Zm4,.45.67-.47-1.64-3.47-.79.22-.27-.57,1.62-.77,2,4.18.79-.22.26.56-2.35,1.11Z"/><path class="cls-9" d="M56.18,13.61l-.81.2L55.1,13l-2.42.6.52,2.13,1.74-.43a2.56,2.56,0,0,1,1.88.12,2,2,0,0,1,1,1.35,2,2,0,0,1-.24,1.67,2.57,2.57,0,0,1-1.61,1l-3.51.87-.15-.61.75-.33-1.37-5.53-.82.06-.15-.61,5.09-1.27ZM53.39,16.5l.66,2.65,1.73-.43a1.37,1.37,0,0,0,1-.65A1.42,1.42,0,0,0,56.86,17a1.3,1.3,0,0,0-.58-.84,1.44,1.44,0,0,0-1.16-.1Z"/><path class="cls-9" d="M58.92,18.22,59.7,18l-.55-3.8-.83,0-.09-.63L60,13.25l.67,4.57.82,0,.09.62L59,18.83Zm.88-6.33-1,.14-.14-1,1-.15Z"/><path class="cls-9" d="M64,13.63,64,15.15a5.08,5.08,0,0,1-.3,2.36,1.51,1.51,0,0,1-1.4.81l-.28,0,0-.84h.21a.73.73,0,0,0,.7-.55,5.14,5.14,0,0,0,.12-1.74L63,13.68l-.81-.1,0-.63,4.59-.23.81,0,0,.63-.8.18.19,3.83.82.1,0,.63-2.59.13,0-.63.81-.18-.2-3.83Z"/><path class="cls-9" d="M68.55,17.49l.81-.1.17-3.84-.8-.17,0-.63,1.79.07-.2,4.61.81.18,0,.62-2.6-.11Zm2-6-1,0,0-1,1,0Z"/><path class="cls-9" d="M75.68,17.48h0l2.37-3.77,1.22.19.8.12-.1.63h-.83l-.6,3.79.78.27-.1.62-2.56-.41.09-.62h.83l.46-2.93h0L75.83,18.8l-.67-.1-1.06-4h0l-.48,3,.78.27-.1.62-2.57-.41.1-.62h.82l.61-3.79-.78-.27.1-.62.8.13,1.24.19Z"/><path class="cls-9" d="M85.5,19,83.37,20.6,82,20.05l.22-.58.76.18L85,18.22l-.34-1.59a1.6,1.6,0,0,0-.17-.42.62.62,0,0,0-.29-.24l-.13-.05-.24-.05L84,15.2a1.82,1.82,0,0,1,.38,0,1,1,0,0,1,.37.09,1.18,1.18,0,0,1,.56.45,2.22,2.22,0,0,1,.29.8l.31,1.74.56.21L87,17.06l-.7-.43.23-.59.75.3,1.67.65-.23.59-.81-.17-.54,1.4.59.23L89.34,18a1.93,1.93,0,0,1,.75-.39,1.18,1.18,0,0,1,.72,0,1,1,0,0,1,.34.2,1.74,1.74,0,0,1,.24.28l-.37.57-.21-.13-.12-.05a.58.58,0,0,0-.39,0,1.07,1.07,0,0,0-.4.2l-1.37,1,.54,2.4.66.37-.22.59-1.4-.55-.47-2.63L87,19.58,86.48,21l.7.43L87,22l-2.42-.95.23-.58.8.17.56-1.42Z"/><path class="cls-9" d="M94.37,19.52a2.24,2.24,0,0,1,1.19,1.53,2.74,2.74,0,0,1-.36,2l-.1.19a2.76,2.76,0,0,1-1.53,1.34,2.08,2.08,0,0,1-1.78-.12,2,2,0,0,1-1.12-1.37A2.54,2.54,0,0,1,91,21.3l.3-.53,3,1.69,0,0a2.09,2.09,0,0,0,.27-1.3,1.22,1.22,0,0,0-.68-.95,2.54,2.54,0,0,0-.83-.3,2.39,2.39,0,0,0-.76,0l0-.75a2.58,2.58,0,0,1,.89,0A3.18,3.18,0,0,1,94.37,19.52ZM92.16,23.8a1.07,1.07,0,0,0,.93.05,2,2,0,0,0,.88-.71v0l-2.16-1.2-.06.1a1.47,1.47,0,0,0-.2,1A1.11,1.11,0,0,0,92.16,23.8Z"/><path class="cls-9" d="M97.31,22l.37-.51,2.11,1.53-.37.51-.74-.36-.91,1.26,1.93,1.4.92-1.26L100,24l.37-.51.66.48.79.57.66.48-.37.51-.74-.36L99.16,28.3l.57.59-.37.5-2.1-1.53.36-.5.74.36.89-1.23-1.93-1.4-.9,1.23.58.59-.37.5-2.1-1.52.36-.51.74.36,2.26-3.11Z"/><path class="cls-9" d="M101.62,31.62a2.3,2.3,0,0,1-.81-1.77,2.84,2.84,0,0,1,.83-1.87l.15-.16a2.75,2.75,0,0,1,1.8-.94,2.07,2.07,0,0,1,1.7.53,2,2,0,0,1,.77,1.6,2.68,2.68,0,0,1-.78,1.67l-.42.44-2.56-2.36h0a2.09,2.09,0,0,0-.57,1.2,1.23,1.23,0,0,0,.44,1.08,2.4,2.4,0,0,0,.73.49,2,2,0,0,0,.74.15l-.15.73a2.31,2.31,0,0,1-.88-.17A3,3,0,0,1,101.62,31.62ZM104.77,28a1.05,1.05,0,0,0-.9-.26,2,2,0,0,0-1,.47v0l1.83,1.68.08-.1a1.46,1.46,0,0,0,.43-.91A1.09,1.09,0,0,0,104.77,28Z"/><path class="cls-9" d="M105.85,35.87l-.5-.64.48-.39.62.55Zm1.11,1.4-1.11-1.4,1.86-1.48-.48-.6.6-.47.48.59,1.14-.91-.39-.72.49-.4,2.74,3.43-1.09.87-.4-.5.44-.43-1.18-1.49-1.14.92.89,1.12-.59.48-.9-1.13-1.26,1,.39.72Z"/><path class="cls-9" d="M114.2,38.09l-1.59.94.69,1.15a2.11,2.11,0,0,1,.34,1.52,1.58,1.58,0,0,1-.81,1.1,1.63,1.63,0,0,1-1.37.2,2,2,0,0,1-1.19-1l-1.6-2.68.53-.32.54.62,3.3-2-.3-.77.54-.32.42.69ZM112,39.43l-1.72,1,.68,1.14a.94.94,0,0,0,1.38.39,1.12,1.12,0,0,0,.48-.59.94.94,0,0,0-.14-.82Zm-.06,4.06.53.63,3.3-2-.3-.77.54-.33.92,1.54-4,2.37.3.76-.54.32-1.33-2.23Zm2.72-4.71-.55.32-.53-.62.66-.39Z"/><path class="cls-9" d="M117.85,46.61l-1.41.58a5,5,0,0,1-2.32.51,1.53,1.53,0,0,1-1.24-1.05l-.1-.26.78-.3.08.19a.74.74,0,0,0,.75.48,5.28,5.28,0,0,0,1.68-.47l1.41-.59-.18-.8.58-.24,1.76,4.24.31.75-.59.24-.44-.69-3.54,1.47.18.8-.58.24-1-2.4.58-.24.44.69,3.55-1.47Z"/><path class="cls-9" d="M120.91,52.75l-1.79.45.32,1.3a2.06,2.06,0,0,1-.11,1.55,1.63,1.63,0,0,1-1.09.83,1.71,1.71,0,0,1-1.37-.21,2,2,0,0,1-.85-1.32l-.76-3,.61-.16.33.76,3.72-.94-.06-.82.62-.15.19.78Zm-2.54.64-1.93.49.32,1.29a1,1,0,0,0,.46.69,1,1,0,0,0,.75.07,1,1,0,0,0,.62-.42,1,1,0,0,0,.11-.83Zm-1.23,3.87.33.76,3.73-.94-.06-.82.61-.15.44,1.73L117.71,59l.06.82-.6.15-.63-2.52Zm4-3.72-.61.15-.34-.75.75-.19Z"/><path class="cls-9" d="M118.81,64.12v0L123,65.58l.1,1.22.07.81-.63,0-.21-.8-3.83.31-.07.82-.63.05-.2-2.6.62,0,.21.8,3-.24v0l-3.86-1.34-.06-.68,3.68-2v0l-3,.24-.07.82-.63,0-.2-2.59.62-.05.2.79,3.83-.3L122,60l.63,0,.06.8.1,1.26Z"/><path class="cls-9" d="M118.52,75.11v0l3.82,2.28-.16,1.21-.1.81-.63-.09,0-.82-3.81-.5-.24.78-.62-.08.34-2.58.62.09,0,.82,2.94.39,0,0-3.5-2.13.09-.67,4-1.16v0l-3-.4-.24.78-.62-.08.34-2.58.62.09,0,.82,3.81.5.25-.78.62.08-.1.8-.17,1.25Z"/><path class="cls-9" d="M121,83.35l-.6-.18.09-.81-2.92-.85,0,0,3,3.34-.27.94-.23.77-.6-.17.09-.82-3.69-1.07-.36.74-.6-.17.72-2.5.6.18-.09.81,2.92.85,0,0-3-3.34.5-1.71.6.17-.09.82,3.69,1.07.36-.74.6.18-.49,1.71Z"/><path class="cls-9" d="M119,87.7l.58.26-1,2.37-.58-.25.2-.8-1.42-.63-1,2.19,1.42.63.46-.69.58.26-.33.74-.4.9-.33.74-.58-.25.21-.8-3.52-1.55-.45.68-.58-.25,1.06-2.38.57.25-.2.8,1.39.61,1-2.19-1.39-.61-.46.68-.57-.25,1-2.38.57.26-.2.79,3.52,1.56Z"/><path class="cls-9" d="M115.11,96.92l-.54-.33.31-.77-2.59-1.59,0,0,2,4-.51.84-.42.69-.54-.33.3-.77-3.27-2-.54.62-.54-.32,1.36-2.22.53.33-.3.76,2.59,1.59,0,0-2-4,.94-1.52.53.33-.31.76,3.28,2,.54-.62.54.33-.93,1.52Z"/><path class="cls-9" d="M107.33,99.86a1.36,1.36,0,0,0-.3.86.9.9,0,0,0,.35.75l-.55.69h0a1.52,1.52,0,0,1-.58-1.25,2.22,2.22,0,0,1,.51-1.51,2.17,2.17,0,0,1,1.71-.93,2.92,2.92,0,0,1,1.89.71l.17.13a2.88,2.88,0,0,1,1.11,1.68,2.11,2.11,0,0,1-.51,1.87,2.83,2.83,0,0,1-.89.78,2.44,2.44,0,0,1-1,.31l-1-.71.49-.61.79.36a1.42,1.42,0,0,0,.49-.19,1.63,1.63,0,0,0,.47-.41,1.19,1.19,0,0,0,.25-1.21,2.58,2.58,0,0,0-.86-1.1l-.17-.13a2.58,2.58,0,0,0-1.28-.6A1.17,1.17,0,0,0,107.33,99.86Z"/><path class="cls-9" d="M105.29,109.05l-1.13-1.12.59-.6.65.54.81-.82-2.75-2.71-.66.48-.45-.44,1.83-1.85.44.44-.47.67,2.74,2.71.8-.81-.55-.64.59-.6,1.14,1.13Z"/><path class="cls-9" d="M100.19,104.52l-.55.61,3.7,4.61.72-.4.39.49-1.28,1-.48-.45a1.9,1.9,0,0,1-.16.85,2,2,0,0,1-.58.71,1.79,1.79,0,0,1-1.7.35A3.61,3.61,0,0,1,98.5,111l-.06-.08a2.86,2.86,0,0,1-.74-1.81,1.84,1.84,0,0,1,.75-1.52,2.27,2.27,0,0,1,.78-.41,1.71,1.71,0,0,1,.81,0l-1.16-1.44-.72.4-.4-.5,2-1.62Zm-.92,5.9a2.85,2.85,0,0,0,1.22,1,1.2,1.2,0,0,0,1.2-.21,1.27,1.27,0,0,0,.44-.6,1.49,1.49,0,0,0,.05-.7l-1.64-2a1.32,1.32,0,0,0-.7-.1,1.38,1.38,0,0,0-.68.31,1.2,1.2,0,0,0-.5,1.06,2.24,2.24,0,0,0,.54,1.25Z"/><path class="cls-9" d="M97.1,114.35l-.8-1.29a5,5,0,0,1-.88-2.2,1.53,1.53,0,0,1,.83-1.4l.24-.14.43.71-.17.12a.74.74,0,0,0-.36.82,5.29,5.29,0,0,0,.74,1.58l.81,1.29.76-.31.33.54-3.9,2.42-.68.43-.34-.53.62-.55-2-3.26-.76.31-.34-.53L93.81,111l.33.53-.61.55,2,3.26Z"/><path class="cls-9" d="M91.21,113.2l-.66.49,1.71,3.44.79-.24.28.57-1.6.79-2.06-4.13-.78.24-.28-.56,2.33-1.16Zm1.13,6.29.88-.44.44.89-.88.44Z"/><path class="cls-9" d="M89.1,118.62l.81-.17.23.59-3.93,1.56h0l-.14.06-.51-1.28.59-.24.29.55,1.76-.7-1.41-3.57-.81.17-.23-.58,2.42-1,.23.58-.7.43Z"/><path class="cls-9" d="M83.4,116.52l-.74.37,1.11,3.68.81-.1.19.6-1.72.52-1.33-4.42-.81.1-.18-.6,2.49-.75Zm0,6.38.94-.28.29,1-.94.28Z"/><circle class="cls-3" cx="67.55" cy="120.7" r="2.75"/><ellipse class="cls-10" cx="67.55" cy="40.94" rx="3.58" ry="10.81" transform="translate(-1.68 78.97) rotate(-60)"/><ellipse class="cls-10" cx="67.55" cy="40.94" rx="10.81" ry="3.58" transform="translate(-11.44 40.83) rotate(-31.14)"/><ellipse class="cls-10" cx="67.55" cy="40.94" rx="3.58" ry="10.81"/><circle class="cls-11" cx="73.8" cy="34.64" r="0.83"/><circle class="cls-11" cx="59.09" cy="38.57" r="0.83"/><circle class="cls-11" cx="65.17" cy="49.18" r="0.83"/><circle class="cls-12" cx="67.52" cy="40.92" r="1.72"/><path class="cls-13" d="M42.12,57.82a25.38,25.38,0,0,0,8.51,2s7.43,0,13,3.91c3.43,2.35,3,3.77,3,3.77l.52.51V87.73s-.45-3-4.29-4.87a40.52,40.52,0,0,0-10.24-4,19.36,19.36,0,0,0-4.16-.47C43.12,78.23,36,75.42,36,75.42Z"/><path class="cls-13" d="M34.75,80.13l1-3.43a24.83,24.83,0,0,0,10.42,2.63,34,34,0,0,1,15.93,4.54s-7-2.21-12.25-2.39S42.11,82.4,34.75,80.13Z"/><path class="cls-13" d="M34.75,81.6s3.36,1.92,15,1.23a32.14,32.14,0,0,1,12.32,2.75s-6.74-1.47-11.27-1.16-7.6,1.84-16.67.92Z"/><path class="cls-13" d="M34.14,86.69a28.24,28.24,0,0,0,12.38-.49c7.35-1.77,15.13.93,15.13.93a46.16,46.16,0,0,0-11.38.2,16.8,16.8,0,0,0-3.11.76C41.65,90,33.83,90.18,33.83,90.18Z"/><path class="cls-13" d="M93,57.82a25.38,25.38,0,0,1-8.51,2s-7.43,0-13,3.91c-3.44,2.35-3,3.77-3,3.77l-.53.51V87.73s.45-3,4.3-4.87a40.28,40.28,0,0,1,10.23-4,19.53,19.53,0,0,1,4.17-.47c5.37-.13,12.47-2.94,12.47-2.94Z"/><path class="cls-13" d="M100.35,80.13l-1-3.43A24.81,24.81,0,0,1,89,79.33,34,34,0,0,0,73,83.87s7-2.21,12.25-2.39S93,82.4,100.35,80.13Z"/><path class="cls-13" d="M100.35,81.6s-3.36,1.92-15,1.23A32.06,32.06,0,0,0,73,85.58s6.74-1.47,11.27-1.16,7.6,1.84,16.67.92Z"/><path class="cls-13" d="M101,86.69a28.25,28.25,0,0,1-12.38-.49c-7.36-1.77-15.14.93-15.14.93A46,46,0,0,1,86,87.52a12.73,12.73,0,0,1,1.94.57c5.52,1.92,13.33,2.09,13.33,2.09Z"/></g></g></svg>